<?xml version="1.0" encoding="utf-8"?>
<!-- Generator: Adobe Illustrator 16.0.0, SVG Export Plug-In . SVG Version: 6.00 Build 0)  -->
<!DOCTYPE svg PUBLIC "-//W3C//DTD SVG 1.1//EN" "http://www.w3.org/Graphics/SVG/1.1/DTD/svg11.dtd">
<svg version="1.1"
	 id="svg2" xmlns:inkscape="http://www.inkscape.org/namespaces/inkscape" xmlns:sodipodi="http://sodipodi.sourceforge.net/DTD/sodipodi-0.dtd" xmlns:svg="http://www.w3.org/2000/svg" xmlns:rdf="http://www.w3.org/1999/02/22-rdf-syntax-ns#" xmlns:cc="http://creativecommons.org/ns#" xmlns:dc="http://purl.org/dc/elements/1.1/" sodipodi:docname="Nouveau document 1" inkscape:version="0.48.4 r9939"
	 xmlns="http://www.w3.org/2000/svg" xmlns:xlink="http://www.w3.org/1999/xlink" x="0px" y="0px" width="110.908px"
	 height="94.873px" viewBox="0 0 110.908 94.873" enable-background="new 0 0 110.908 94.873" xml:space="preserve">
<sodipodi:namedview fit-margin-left="0" fit-margin-top="0" showgrid="false" inkscape:cy="242.82654" inkscape:cx="138.09" inkscape:zoom="1" borderopacity="1.0" bordercolor="#666666" pagecolor="#ffffff" id="base" fit-margin-right="0" inkscape:pageopacity="0.0" inkscape:document-units="px" inkscape:pageshadow="2" inkscape:window-x="-8" inkscape:current-layer="layer1" inkscape:window-y="-8" inkscape:window-maximized="1" inkscape:window-width="1680" fit-margin-bottom="0" inkscape:window-height="998">
	</sodipodi:namedview>
<g id="layer1" transform="translate(-775.66757,6.3112197)" inkscape:label="Calque 1" inkscape:groupmode="layer">
	<path id="path3028" inkscape:connector-curvature="0" sodipodi:nodetypes="ssssssssss" fill="#3771B7" d="M828.52,35.677
		c-5.749-1.505-12.287-5.043-16.001-8.658c-4.532-4.411-6.572-10.78-5.358-16.725c1.318-6.457,5.873-12.663,11.242-15.316
		c2.462-1.217,2.794-1.29,5.918-1.29c3.038,0,3.498,0.093,5.6,1.127c5.294,2.607,9.539,9.566,12.171,19.964
		c2.347,9.269,1.918,16.626-1.141,19.542c-0.707,0.672-1.914,1.411-2.684,1.642C836.19,36.588,831.464,36.448,828.52,35.677z"/>
	<path id="path3026" inkscape:connector-curvature="0" sodipodi:nodetypes="ssssssss" fill="#D56F39" d="M867.208,62.816
		c-2.733-0.765-4.69-2.02-7.479-4.797c-4.665-4.646-10.038-14.166-11.746-20.81c-1.08-4.201-1.058-7.836,0.063-9.987
		c2.443-4.692,12.455-5.712,23.104-2.354c8.109,2.557,13.107,7.314,14.895,14.178c2.174,8.34-2.521,19.42-9.729,22.969
		C873.612,63.346,870.183,63.648,867.208,62.816z"/>
	<path id="path3024" inkscape:connector-curvature="0" sodipodi:nodetypes="sssssscs" fill="#B4363B" d="M826.405,87.959
		c-8.465-2.213-12.14-9.701-9.299-18.951c0.977-3.182,3.849-8.932,6.366-12.745c2.76-4.183,8.296-9.708,11.05-11.032
		c3.938-1.893,6.986-1.139,10.303,2.551c3.977,4.422,7.518,14.604,7.504,21.57c-0.022,11.166-8.768,19.266-20.738,19.209
		C829.975,88.553,827.641,88.282,826.405,87.959L826.405,87.959z"/>
	<path id="path3002" inkscape:connector-curvature="0" sodipodi:nodetypes="cssccccssscsscssscccssssssssssscc" d="M801.168,67.2
		c0-1.271,1.091-2.65,2.778-3.511c1.611-0.821,2.9-2.454,3.409-4.315c0.23-0.842,0.378-5.07,0.379-10.803l0.002-9.422h-2.42h-2.42
		v-1.398c0-1.024,0.228-1.626,0.849-2.247c0.838-0.838,0.924-0.849,7.087-0.849h6.239v1.398c0,1.658-1.197,3.096-2.577,3.096h-0.88
		v8.627c0,5.069-0.161,9.381-0.389,10.457c-1.006,4.739-3.705,7.534-8.916,9.233C801.408,68.412,801.168,68.392,801.168,67.2
		L801.168,67.2z M786.382,61.6c-3.766-0.742-7.667-3.875-9.32-7.486c-4.792-10.469,3.44-21.944,14.467-20.168
		c2.802,0.451,5.973,2.01,7.706,3.788c1.495,1.533,1.414,1.991-0.531,2.996c-1.443,0.746-2.618,0.605-4.647-0.555
		c-4.684-2.68-9.744-1.153-12.093,3.646c-0.804,1.645-0.905,2.213-0.785,4.399c0.292,5.284,3.487,8.536,8.404,8.554
		c1.691,0.006,2.534-0.221,4.593-1.238c2.866-1.416,4.248-1.412,5.59,0.018c0.895,0.952,0.696,1.458-1.192,3.035
		C795.358,61.276,790.646,62.44,786.382,61.6L786.382,61.6z"/>
</g>
</svg>
