<?xml version="1.0" encoding="utf-8"?>
<!-- Generator: Adobe Illustrator 16.0.0, SVG Export Plug-In . SVG Version: 6.00 Build 0)  -->
<!DOCTYPE svg PUBLIC "-//W3C//DTD SVG 1.1//EN" "http://www.w3.org/Graphics/SVG/1.1/DTD/svg11.dtd">
<svg version="1.1" id="Layer_1" xmlns="http://www.w3.org/2000/svg" xmlns:xlink="http://www.w3.org/1999/xlink" x="0px" y="0px"
	 width="535.904px" height="161.306px" viewBox="0 0 535.904 161.306" enable-background="new 0 0 535.904 161.306"
	 xml:space="preserve">
<g>
	<path fill="#DF1F36" d="M129.505,123.505c-2.772-20.707-12.957-37.591-23.374-37.675c-10.417-0.084-25.621,16.8-34.525,37.801
		c-8.904,21,1.176,37.675,23.479,37.675c22.303,0,37.171-16.969,34.399-37.801"/>
	<path fill="#FFFFFF" d="M23.115,68.399c-13.314,0-23.101,10.5-23.101,23.856c-0.442,12.542,9.365,23.068,21.907,23.51
		c0.397,0.014,0.796,0.018,1.193,0.011c7.394,0.014,14.393-3.332,19.026-9.093c-1.31-2.081-3.634-3.299-6.09-3.192
		c-4.032,0-4.936,4.053-12.937,4.053c-8.116-0.19-14.542-6.925-14.352-15.042c0.002-0.082,0.005-0.165,0.009-0.247
		c0-8.61,6.51-15.604,14.364-15.604c7.14,0,8.862,4.2,12.6,4.2c2.489-0.185,4.781-1.422,6.301-3.402
		c-4.566-5.779-11.535-9.14-18.9-9.114 M70.073,69.763h-18.69c-2.671-0.325-5.1,1.577-5.425,4.248
		c-0.028,0.228-0.04,0.458-0.035,0.688v2.772h8.4c0,0,0.314,28.204,0,31.25c-0.066,4.433-2.568,8.47-6.511,10.5
		c-4.368,2.1-4.41,4.032-4.662,7.098c0,0.21,0.168,0.357,0.294,0.357c0.169,0,4.368-1.05,4.999-1.344
		c3.947-1.261,10.017-3.948,12.894-9.556c0,0,2.73-4.2,2.646-13.104V77.471h0.42c2.826,0.292,5.354-1.763,5.646-4.589
		c0.012-0.108,0.02-0.217,0.023-0.325v-2.772"/>
	<path fill="#E98C01" d="M166.676,54.916c-19.53-7.665-39.271-6.847-44.312,2.247c-5.04,9.093,2.373,30.556,16.275,48.301
		c13.902,17.746,33.496,17.221,44.312-2.268c10.815-19.489,3.192-40.742-16.297-48.302"/>
	<path fill="#007AC3" d="M67.343,61.174c17.346,11.845,36.75,15.414,43.639,7.771c6.888-7.645,4.536-30.367-5.04-50.863
		C96.365-2.416,77.129-6.195,62.261,10.395c-14.869,16.591-12.139,38.978,5.103,50.779"/>
	<path fill="#FFFFFF" d="M222.327,68.357c-13.272,0-22.975,10.5-23.101,23.73v0.21c-0.396,12.52,9.432,22.991,21.951,23.388
		c0.383,0.012,0.767,0.015,1.149,0.007c7.352-0.013,14.302-3.356,18.9-9.093c-1.32-2.064-3.643-3.266-6.09-3.15
		c-3.99,0-4.914,4.032-12.895,4.032c-8.116-0.203-14.531-6.947-14.329-15.063c0.002-0.068,0.004-0.137,0.007-0.205
		c0-8.61,6.51-15.583,14.322-15.583c7.14,0,8.82,4.2,12.601,4.2c2.489-0.182,4.782-1.42,6.3-3.401
		c-4.57-5.769-11.541-9.114-18.9-9.072 M303.683,69.406h-18.775c-1.133-0.072-2.253,0.271-3.149,0.966
		c-0.772,0.743-1.179,1.787-1.113,2.856v32.551h18.774c2.562,0,4.201-1.26,4.201-3.654V99.27h-11.761
		c-1.203-0.134-2.383,0.407-3.066,1.406l-0.126,0.21V90.89h9.976c2.521,0,4.201-1.26,4.201-3.675v-2.898h-10.92
		c-1.225-0.119-2.422,0.415-3.15,1.407l-0.147,0.21v-10.08h10.753c2.126,0.186,4-1.388,4.186-3.514
		c0.012-0.13,0.017-0.262,0.015-0.393v-2.625 M385.543,75.916c2.113,0.198,3.986-1.355,4.185-3.469
		c0.013-0.145,0.019-0.291,0.016-0.438v-2.625H370.99c-1.15-0.094-2.296,0.243-3.213,0.945c-0.762,0.748-1.16,1.791-1.092,2.856
		v32.593h18.753c2.521,0,4.2-1.26,4.2-3.675v-2.877h-11.823c-1.202-0.13-2.38,0.411-3.065,1.406l-0.147,0.21v-9.975h9.954
		c2.521,0,4.2-1.261,4.2-3.676v-2.877h-10.92c-1.226-0.119-2.423,0.415-3.15,1.407l-0.147,0.21v-10.08L385.543,75.916z
		 M316.829,69.406h-3.78c-2.319,0-4.2,1.88-4.2,4.2v32.173h3.78c1.137,0.074,2.26-0.277,3.15-0.987
		c0.789-0.732,1.206-1.781,1.134-2.855V69.385 M474.753,69.406h-7.014c-2.521,0-4.2,1.26-4.2,3.654l-0.21,32.761h3.843
		c2.52,0,4.2-1.26,4.2-3.675l-0.525-25.664l14.49,29.401h6.993c0.856,0.022,1.705-0.157,2.479-0.524
		c1.182-0.593,1.899-1.83,1.827-3.15l-0.588-32.719h-3.066c-0.87-0.028-1.734,0.151-2.521,0.525
		c-1.178,0.594-1.889,1.833-1.806,3.149l-0.126,24.025l-13.86-27.722 M345.936,69.406c-1.316-0.097-2.635,0.156-3.822,0.735
		c-0.979,0.642-1.521,1.774-1.406,2.939v2.688h8.399v0.146c0,0,0.126,12.034,0.126,21.274c0,5.25,0,9.703-0.21,10.857
		c-0.102,4.506-2.654,8.597-6.656,10.669c-1.618,0.583-2.994,1.692-3.906,3.149c-0.521,1.243-0.778,2.58-0.756,3.928
		c-0.016,0.069-0.016,0.141,0,0.21l2.352-0.63l2.457-0.631h0.252c3.99-1.26,10.122-3.989,13.021-9.66l0.104-0.21
		c1.875-3.978,2.74-8.355,2.521-12.747V75.79h0.567c2.787,0.327,5.312-1.667,5.64-4.454c0.015-0.125,0.024-0.25,0.03-0.376v-1.575
		L345.936,69.406z M402.722,100.068V76.484h4.053c6.086-0.176,11.163,4.616,11.339,10.703c0.005,0.191,0.006,0.383,0.001,0.574
		c0.127,5.914-4.565,10.811-10.479,10.937c-0.287,0.006-0.575,0.001-0.861-0.017h-1.26c-1.111-0.047-2.165,0.496-2.772,1.429
		 M398.732,69.406c-2.319-0.069-4.255,1.754-4.324,4.072c-0.002,0.042-0.002,0.085-0.002,0.128v32.131h12.306
		c10.857,0,19.446-7.771,19.446-18.061c-0.225-10.366-8.811-18.588-19.178-18.362c-0.089,0.002-0.179,0.005-0.269,0.008
		L398.732,69.406z"/>
	<path fill="#FFFFFF" d="M333.378,98.807c-1.091-0.049-2.127,0.478-2.73,1.387l-0.147,0.21V69.406h-3.737c-2.32,0-4.2,1.88-4.2,4.2v32.131h17.01
		c2.101,0.209,3.973-1.325,4.182-3.426c0.014-0.132,0.02-0.264,0.019-0.396v-3.109H333.378z M442.56,69.406h3.779l14.701,32.867
		v0.21c0.05,0.952-0.355,1.872-1.093,2.478c-0.837,0.595-1.851,0.891-2.877,0.84h-3.36l-3.507-8.022h-11.571l1.05-2.521
		c0.347-1.075,0.953-2.049,1.765-2.835c0.847-0.701,1.926-1.061,3.023-1.008h3.004l-4.83-11.341l-10.018,23.375
		c-0.591,1.538-2.143,2.486-3.78,2.31h-5.25l14.994-34.504c0.63-1.386,2.101-1.89,4.2-1.89 M518.434,106.494
		c6.041,0.347,11.77-2.708,14.848-7.917c1.866-3.54,2.765-7.51,2.604-11.509v-2.1h-9.808c-1.326-0.022-2.634,0.319-3.78,0.987
		c-1.056,0.568-1.728,1.657-1.764,2.855v2.646h7.98v0.168c0,1.59-0.517,3.138-1.471,4.41c-1.302,1.722-3.843,3.255-8.547,3.255
		c-2.868,0.05-5.639-1.038-7.707-3.024c-2.362-2.512-3.592-5.881-3.402-9.324c-0.055-2.964,0.959-5.849,2.855-8.127
		c2.029-2.311,4.969-3.615,8.044-3.57c1.96-0.115,3.911,0.353,5.606,1.344c0.952,0.783,2.13,1.239,3.36,1.303
		c1.296-0.021,2.549-0.464,3.57-1.261c0.572-0.452,1.1-0.958,1.575-1.512c-3.15-4.637-8.47-7.32-14.07-7.098
		c-11.551,0-19.006,7.979-19.026,18.9c-0.385,10.432,7.76,19.2,18.191,19.583c0.341,0.013,0.683,0.017,1.023,0.011 M253.408,69.365
		h-3.78c-1.136-0.07-2.258,0.281-3.15,0.987c-0.774,0.741-1.182,1.786-1.113,2.855v32.635h3.36c2.562,0,4.62-1.26,4.662-3.653
		V90.911h9.934c1.328,0.087,2.624-0.43,3.528-1.407l0.146-0.147v16.486h3.738c1.136,0.07,2.257-0.281,3.149-0.986
		c0.774-0.741,1.182-1.787,1.113-2.856V69.343h-3.717c-2.521,0-4.2,1.303-4.2,3.696v11.299h-10.29
		c-1.229-0.12-2.43,0.425-3.15,1.428l-0.146,0.21V69.385"/>
</g>
</svg>
